<svg width="32" height="40" viewBox="0 0 32 40" fill="none" xmlns="http://www.w3.org/2000/svg">
<path d="M0 19.5833C0 20.1027 0.206324 20.6008 0.573583 20.9681C0.940842 21.3353 1.43895 21.5417 1.95833 21.5417H16.8221L12.3179 26.0262C12.1344 26.2083 11.9887 26.4249 11.8893 26.6635C11.7898 26.9022 11.7386 27.1581 11.7386 27.4167C11.7386 27.6752 11.7898 27.9312 11.8893 28.1698C11.9887 28.4084 12.1344 28.625 12.3179 28.8071C12.5 28.9906 12.7166 29.1363 12.9552 29.2357C13.1938 29.3352 13.4498 29.3864 13.7083 29.3864C13.9669 29.3864 14.2228 29.3352 14.4615 29.2357C14.7001 29.1363 14.9167 28.9906 15.0988 28.8071L22.9321 20.9737C23.1104 20.7875 23.2501 20.5679 23.3433 20.3275C23.5392 19.8507 23.5392 19.3159 23.3433 18.8392C23.2501 18.5988 23.1104 18.3792 22.9321 18.1929L15.0988 10.3596C14.9162 10.177 14.6994 10.0322 14.4608 9.93333C14.2223 9.83451 13.9666 9.78365 13.7083 9.78365C13.4501 9.78365 13.1944 9.83451 12.9558 9.93333C12.7173 10.0322 12.5005 10.177 12.3179 10.3596C12.1353 10.5422 11.9905 10.7589 11.8917 10.9975C11.7928 11.2361 11.742 11.4918 11.742 11.75C11.742 12.0082 11.7928 12.2639 11.8917 12.5025C11.9905 12.7411 12.1353 12.9578 12.3179 13.1404L16.8221 17.625H1.95833C1.43895 17.625 0.940842 17.8313 0.573583 18.1986C0.206324 18.5658 0 19.064 0 19.5833V19.5833ZM25.4583 0H5.875C4.31685 0 2.82252 0.618972 1.72075 1.72075C0.618972 2.82252 0 4.31685 0 5.875V11.75C0 12.2694 0.206324 12.7675 0.573583 13.1347C0.940842 13.502 1.43895 13.7083 1.95833 13.7083C2.47772 13.7083 2.97583 13.502 3.34308 13.1347C3.71034 12.7675 3.91667 12.2694 3.91667 11.75V5.875C3.91667 5.35562 4.12299 4.85751 4.49025 4.49025C4.85751 4.12299 5.35562 3.91667 5.875 3.91667H25.4583C25.9777 3.91667 26.4758 4.12299 26.8431 4.49025C27.2103 4.85751 27.4167 5.35562 27.4167 5.875V33.2917C27.4167 33.811 27.2103 34.3092 26.8431 34.6764C26.4758 35.0437 25.9777 35.25 25.4583 35.25H5.875C5.35562 35.25 4.85751 35.0437 4.49025 34.6764C4.12299 34.3092 3.91667 33.811 3.91667 33.2917V27.4167C3.91667 26.8973 3.71034 26.3992 3.34308 26.0319C2.97583 25.6647 2.47772 25.4583 1.95833 25.4583C1.43895 25.4583 0.940842 25.6647 0.573583 26.0319C0.206324 26.3992 0 26.8973 0 27.4167V33.2917C0 34.8498 0.618972 36.3441 1.72075 37.4459C2.82252 38.5477 4.31685 39.1667 5.875 39.1667H25.4583C27.0165 39.1667 28.5108 38.5477 29.6126 37.4459C30.7144 36.3441 31.3333 34.8498 31.3333 33.2917V5.875C31.3333 4.31685 30.7144 2.82252 29.6126 1.72075C28.5108 0.618972 27.0165 0 25.4583 0Z" fill="#E5E5E5"/>
</svg>
