<svg width="40" height="40" viewBox="0 0 40 40" fill="none" xmlns="http://www.w3.org/2000/svg">
<path d="M15.6667 21.5417H1.95833C1.43895 21.5417 0.940841 21.748 0.573582 22.1152C0.206324 22.4825 0 22.9806 0 23.5V37.2083C0 37.7277 0.206324 38.2258 0.573582 38.5931C0.940841 38.9603 1.43895 39.1667 1.95833 39.1667H15.6667C16.186 39.1667 16.6842 38.9603 17.0514 38.5931C17.4187 38.2258 17.625 37.7277 17.625 37.2083V23.5C17.625 22.9806 17.4187 22.4825 17.0514 22.1152C16.6842 21.748 16.186 21.5417 15.6667 21.5417ZM13.7083 35.25H3.91667V25.4583H13.7083V35.25ZM37.2083 0H23.5C22.9806 0 22.4825 0.206324 22.1152 0.573582C21.748 0.940841 21.5417 1.43895 21.5417 1.95833V15.6667C21.5417 16.186 21.748 16.6842 22.1152 17.0514C22.4825 17.4187 22.9806 17.625 23.5 17.625H37.2083C37.7277 17.625 38.2258 17.4187 38.5931 17.0514C38.9603 16.6842 39.1667 16.186 39.1667 15.6667V1.95833C39.1667 1.43895 38.9603 0.940841 38.5931 0.573582C38.2258 0.206324 37.7277 0 37.2083 0V0ZM35.25 13.7083H25.4583V3.91667H35.25V13.7083ZM37.2083 21.5417H23.5C22.9806 21.5417 22.4825 21.748 22.1152 22.1152C21.748 22.4825 21.5417 22.9806 21.5417 23.5V37.2083C21.5417 37.7277 21.748 38.2258 22.1152 38.5931C22.4825 38.9603 22.9806 39.1667 23.5 39.1667H37.2083C37.7277 39.1667 38.2258 38.9603 38.5931 38.5931C38.9603 38.2258 39.1667 37.7277 39.1667 37.2083V23.5C39.1667 22.9806 38.9603 22.4825 38.5931 22.1152C38.2258 21.748 37.7277 21.5417 37.2083 21.5417ZM35.25 35.25H25.4583V25.4583H35.25V35.25ZM15.6667 0H1.95833C1.43895 0 0.940841 0.206324 0.573582 0.573582C0.206324 0.940841 0 1.43895 0 1.95833V15.6667C0 16.186 0.206324 16.6842 0.573582 17.0514C0.940841 17.4187 1.43895 17.625 1.95833 17.625H15.6667C16.186 17.625 16.6842 17.4187 17.0514 17.0514C17.4187 16.6842 17.625 16.186 17.625 15.6667V1.95833C17.625 1.43895 17.4187 0.940841 17.0514 0.573582C16.6842 0.206324 16.186 0 15.6667 0V0ZM13.7083 13.7083H3.91667V3.91667H13.7083V13.7083Z" fill="#E5E5E5"/>
</svg>
