<svg width="44" height="34" viewBox="0 0 44 34" fill="none" xmlns="http://www.w3.org/2000/svg">
<path d="M22.1292 17.0767C23.1741 16.1722 24.0122 15.0535 24.5866 13.7965C25.1611 12.5395 25.4583 11.1737 25.4583 9.79167C25.4583 7.19475 24.4267 4.70421 22.5904 2.86791C20.7541 1.03162 18.2636 3.50367e-07 15.6667 3.50367e-07C13.0698 3.50367e-07 10.5792 1.03162 8.74291 2.86791C6.90662 4.70421 5.875 7.19475 5.875 9.79167C5.87499 11.1737 6.17228 12.5395 6.7467 13.7965C7.32113 15.0535 8.15924 16.1722 9.20417 17.0767C6.46277 18.318 4.13691 20.3227 2.50467 22.8509C0.872428 25.3791 0.00288238 28.324 0 31.3333C0 31.8527 0.206324 32.3508 0.573582 32.7181C0.940841 33.0853 1.43895 33.2917 1.95833 33.2917C2.47772 33.2917 2.97583 33.0853 3.34308 32.7181C3.71034 32.3508 3.91667 31.8527 3.91667 31.3333C3.91667 28.217 5.15461 25.2284 7.35816 23.0248C9.56172 20.8213 12.5504 19.5833 15.6667 19.5833C18.783 19.5833 21.7716 20.8213 23.9752 23.0248C26.1787 25.2284 27.4167 28.217 27.4167 31.3333C27.4167 31.8527 27.623 32.3508 27.9903 32.7181C28.3575 33.0853 28.8556 33.2917 29.375 33.2917C29.8944 33.2917 30.3925 33.0853 30.7598 32.7181C31.127 32.3508 31.3333 31.8527 31.3333 31.3333C31.3305 28.324 30.4609 25.3791 28.8287 22.8509C27.1964 20.3227 24.8706 18.318 22.1292 17.0767V17.0767ZM15.6667 15.6667C14.5047 15.6667 13.3688 15.3221 12.4027 14.6765C11.4366 14.031 10.6835 13.1134 10.2389 12.0399C9.79421 10.9664 9.67787 9.78515 9.90455 8.64551C10.1312 7.50587 10.6908 6.45905 11.5124 5.63741C12.334 4.81578 13.3809 4.25624 14.5205 4.02955C15.6601 3.80287 16.8414 3.91921 17.9149 4.36387C18.9884 4.80854 19.906 5.56155 20.5516 6.52769C21.1971 7.49383 21.5417 8.6297 21.5417 9.79167C21.5417 11.3498 20.9227 12.8441 19.8209 13.9459C18.7191 15.0477 17.2248 15.6667 15.6667 15.6667ZM34.7408 16.2933C35.9941 14.882 36.8128 13.1386 37.0983 11.2728C37.3838 9.40709 37.124 7.4986 36.3501 5.77708C35.5763 4.05556 34.3213 2.59439 32.7364 1.56945C31.1515 0.544515 29.3041 -0.000504467 27.4167 3.50367e-07C26.8973 3.50367e-07 26.3992 0.206324 26.0319 0.573583C25.6647 0.940841 25.4583 1.43895 25.4583 1.95833C25.4583 2.47772 25.6647 2.97583 26.0319 3.34308C26.3992 3.71034 26.8973 3.91667 27.4167 3.91667C28.9748 3.91667 30.4691 4.53564 31.5709 5.63741C32.6727 6.73919 33.2917 8.23352 33.2917 9.79167C33.2889 10.8203 33.0161 11.8301 32.5006 12.7202C31.9851 13.6103 31.245 14.3495 30.3542 14.8637C30.0638 15.0312 29.8213 15.2704 29.6499 15.5584C29.4784 15.8465 29.3838 16.1737 29.375 16.5087C29.3668 16.8412 29.4434 17.1703 29.5976 17.4649C29.7518 17.7596 29.9784 18.0101 30.2563 18.1929L31.02 18.7021L31.2746 18.8392C33.6351 19.9588 35.6266 21.7296 37.0144 23.9432C38.4022 26.1567 39.1286 28.7208 39.1079 31.3333C39.1079 31.8527 39.3142 32.3508 39.6815 32.7181C40.0488 33.0853 40.5469 33.2917 41.0662 33.2917C41.5856 33.2917 42.0837 33.0853 42.451 32.7181C42.8183 32.3508 43.0246 31.8527 43.0246 31.3333C43.0406 28.3281 42.2879 25.3687 40.838 22.7364C39.3882 20.104 37.2893 17.8861 34.7408 16.2933V16.2933Z" fill="#E5E5E5"/>
</svg>
